<?xml version="1.0" encoding="UTF-8"?>
<svg width="324px" height="489px" viewBox="0 0 324 489" version="1.1" xmlns="http://www.w3.org/2000/svg" xmlns:xlink="http://www.w3.org/1999/xlink">
    <title>Group 7</title>
    <defs>
        <path d="M67.2201062,27.7848 L32.3752212,27.7848 C27.8475044,27.7848 24.1442124,31.4892 24.1442124,36.018 C24.1442124,40.5468 27.8475044,44.2512 32.3752212,44.2512 L50.108177,44.2512 L55.3050619,44.2512 C59.8327788,44.2512 63.5360708,47.9568 63.5360708,52.4856 C63.5360708,54.7488 62.6081416,56.8116 61.1157522,58.2984 C59.6293805,59.7924 57.5665133,60.72 55.3050619,60.72 L44.2180531,60.72 L38.0968496,60.72 L8.23100885,60.72 C3.70329204,60.72 0,64.4256 0,68.9532 C0,73.4808 3.70329204,77.1864 8.23100885,77.1864 L29.6118938,77.1864 C23.1573097,92.3604 19.5827965,109.056 19.5827965,126.5904 C19.5827965,132.9516 20.0545841,139.2036 20.959646,145.3128 C21.3375575,147.8652 21.7936991,150.396 22.3268673,152.8992 C37.8561416,150.5232 54.3289912,148.6116 71.5263717,147.2172 L72.820177,148.398 L74.0381593,147.0204 C94.6993274,145.4124 116.384708,144.5556 138.751292,144.5556 C186.271858,144.5556 230.740248,148.4196 268.761274,155.1384 C270.227186,148.7832 271.215292,142.2444 271.682265,135.5592 C271.895292,132.5952 272,129.6036 272,126.5904 C272,56.8608 215.497416,0.3384 145.792,0.3384 C116.083823,0.3384 88.779115,10.6068 67.2201062,27.7848 Z" id="path-1"></path>
        <path d="M8.46633333,0.3572 C3.80966667,0.3572 0,4.34846667 0,9.22386667 C0,14.0992667 3.80966667,18.0905333 8.46633333,18.0905333 L13.5324444,18.0905333 C18.1903333,18.0905333 22,14.0992667 22,9.22386667 C22,4.34846667 18.1903333,0.3572 13.5324444,0.3572 L8.46633333,0.3572 Z" id="path-3"></path>
        <path d="M52.1526211,3.20934066 L50.9343436,4.58857143 L49.6415022,3.40637363 C32.4617445,4.80252747 16.005978,6.71362637 0.490678414,9.09373626 C12.5784449,66.2478022 63.2097225,109.132088 123.833762,109.132088 C152.219749,109.132088 178.412115,99.7252747 199.490841,83.8574725 L221.928555,83.8574725 C226.450493,83.8574725 230.151026,80.1476923 230.151026,75.6159341 C230.151026,73.3530769 229.223789,71.286044 227.733714,69.798022 C226.247247,68.3027473 224.185916,67.3743956 221.928555,67.3743956 L212.170308,67.3743956 C207.647167,67.3743956 203.946634,63.6658242 203.946634,59.1328571 C203.946634,56.8687912 204.873872,54.802967 206.363947,53.3137363 C207.850414,51.8184615 209.911744,50.8913187 212.170308,50.8913187 L264.693344,50.8913187 C269.216485,50.8913187 272.915815,47.1827473 272.915815,42.6485714 C272.915815,40.3845055 271.988577,38.3186813 270.498502,36.8306593 C269.007225,35.3353846 266.955515,34.407033 264.693344,34.407033 L238.93874,34.407033 C242.227969,27.0612088 244.837705,19.3467033 246.683762,11.336044 C208.69948,4.61153846 164.275044,0.742197802 116.800705,0.742197802 C94.4567974,0.742197802 72.7911806,1.59923077 52.1526211,3.20934066 Z" id="path-5"></path>
        <path d="M172.705335,16.0561818 L160.02286,4.61972727 L146.451482,14.5304545 L140.762506,6.81909091 L118.304506,14.5304545 L66.5691829,6.81909091 L36.4966524,14.9878182 C45.6919878,14.6852727 55.0350732,14.5304545 64.5018841,14.5304545 C111.867171,14.5304545 156.192171,18.408 194.090646,25.1514545 C195.548927,18.772 196.535128,12.2105455 197,5.50136364 L192.706841,0.333272727 L172.705335,16.0561818 Z M0,17.004 C11.8488293,16.0750909 24.0352012,15.3967273 36.4966524,14.9878182 L14.2812988,0.725636364 L0,17.004 Z" id="path-7"></path>
        <path d="M0,0.639 L1.545,1.9245 L3,0.423 C1.998,0.489 0.9945,0.561 0,0.639 Z" id="path-9"></path>
        <path d="M0,20.48125 C0.381285714,23.0562083 0.8415,25.6082083 1.377,28.1324167 C17.0400714,25.7362917 33.6551429,23.809 51,22.4025 L26.8466429,0.34075 L0,20.48125 Z" id="path-11"></path>
        <path d="M0.853139241,4 C0.853139241,6.208 21.629519,8 47.2593924,8 C72.8880759,8 93.6644557,6.208 93.6644557,4 C93.6644557,1.792 72.8880759,0 47.2593924,0 C21.629519,0 0.853139241,1.792 0.853139241,4 Z" id="path-13"></path>
        <path d="M0,9.22386667 C0,14.1005333 3.825,18.0905333 8.5,18.0905333 C13.175,18.0905333 17,14.1005333 17,9.22386667 C17,4.34846667 13.175,0.3572 8.5,0.3572 C3.825,0.3572 0,4.34846667 0,9.22386667 Z" id="path-15"></path>
    </defs>
    <g id="Page-1" stroke="none" stroke-width="1" fill="none" fill-rule="evenodd">
        <g id="cart-empty" transform="translate(-10.000000, -168.000000)">
            <g id="Group-7" transform="translate(10.000000, 168.000000)">
                <g id="Group-4">
                    <g id="Artwork">
                        <g id="Group-3" transform="translate(29.000000, 57.000000)">
                            <mask id="mask-2" fill="white">
                                <use xlink:href="#path-1"></use>
                            </mask>
                            <g id="Clip-2"></g>
                            <polygon id="Fill-1" fill="#F1F2F7" mask="url(#mask-2)" points="-6.01769912 161.1384 278.017699 161.1384 278.017699 -5.6616 -6.01769912 -5.6616"></polygon>
                        </g>
                        <g id="Group-6" transform="translate(0.000000, 117.000000)">
                            <mask id="mask-4" fill="white">
                                <use xlink:href="#path-3"></use>
                            </mask>
                            <g id="Clip-5"></g>
                            <polygon id="Fill-4" fill="#F1F2F7" mask="url(#mask-4)" points="-6.11111111 24.4238667 28.1111111 24.4238667 28.1111111 -5.97613333 -6.11111111 -5.97613333"></polygon>
                        </g>
                        <g id="Group-9" transform="translate(51.000000, 200.000000)">
                            <mask id="mask-6" fill="white">
                                <use xlink:href="#path-5"></use>
                            </mask>
                            <g id="Clip-8"></g>
                            <polygon id="Fill-7" fill="#E8EBF2" mask="url(#mask-6)" points="-5.52253744 115.176044 278.927828 115.176044 278.927828 -5.30175824 -5.52253744 -5.30175824"></polygon>
                        </g>
                        <g id="Group-12" transform="translate(104.000000, 187.000000)">
                            <mask id="mask-8" fill="white">
                                <use xlink:href="#path-7"></use>
                            </mask>
                            <g id="Clip-11"></g>
                            <polygon id="Fill-10" fill="#E0E2EE" mask="url(#mask-8)" points="-6.00609756 31.0605455 203.006098 31.0605455 203.006098 -5.57581818 -6.00609756 -5.57581818"></polygon>
                        </g>
                        <g id="Group-15" transform="translate(100.000000, 202.000000)">
                            <mask id="mask-10" fill="white">
                                <use xlink:href="#path-9"></use>
                            </mask>
                            <g id="Clip-14"></g>
                            <polygon id="Fill-13" fill="#F1F2F7" mask="url(#mask-10)" points="-7.5 9.423 10.5 9.423 10.5 -7.077 -7.5 -7.077"></polygon>
                        </g>
                        <g id="Group-18" transform="translate(49.000000, 180.000000)">
                            <mask id="mask-12" fill="white">
                                <use xlink:href="#path-11"></use>
                            </mask>
                            <g id="Clip-17"></g>
                            <polygon id="Fill-16" fill="#E0E2EE" mask="url(#mask-12)" points="-6.07142857 34.1740833 57.0714286 34.1740833 57.0714286 -5.70091667 -6.07142857 -5.70091667"></polygon>
                        </g>
                        <g id="Group-21" transform="translate(130.000000, 248.000000)">
                            <mask id="mask-14" fill="white">
                                <use xlink:href="#path-13"></use>
                            </mask>
                            <g id="Clip-20"></g>
                            <polygon id="Fill-19" fill="#D8DBEA" mask="url(#mask-14)" points="-5.09503797 13.7142857 99.6138228 13.7142857 99.6138228 -5.71428571 -5.09503797 -5.71428571"></polygon>
                        </g>
                        <g id="Group-24" transform="translate(288.000000, 267.000000)">
                            <mask id="mask-16" fill="white">
                                <use xlink:href="#path-15"></use>
                            </mask>
                            <g id="Clip-23"></g>
                            <polygon id="Fill-22" fill="#E1E3EF" mask="url(#mask-16)" points="-6.07142857 24.4238667 23.0714286 24.4238667 23.0714286 -5.97613333 -6.07142857 -5.97613333"></polygon>
                        </g>
                        <g id="Group-47" transform="translate(166.000000, 132.000000)" fill="#D8DBEA">
                            <path d="M10.6267857,17.5176207 C6.75059524,17.5176207 3.6077381,14.3314138 3.6077381,10.4017586 C3.6077381,6.47331034 6.75059524,3.28831034 10.6267857,3.28831034 C14.5029762,3.28831034 17.6458333,6.47331034 17.6458333,10.4017586 C17.6458333,14.3314138 14.5029762,17.5176207 10.6267857,17.5176207 M10.6267857,0.341068966 C5.14583333,0.341068966 0.701785714,4.8452069 0.701785714,10.4017586 C0.701785714,15.9607241 5.14583333,20.4648621 10.6267857,20.4648621 C16.1077381,20.4648621 20.5529762,15.9607241 20.5529762,10.4017586 C20.5529762,4.8452069 16.1077381,0.341068966 10.6267857,0.341068966" id="Fill-25"></path>
                        </g>
                        <g id="Bee" transform="translate(147.000000, 0.000000)">
                            <path d="M48.6841522,37.7169811 C7.0220864,41.2579666 -8.290099,76.6641851 4.25389106,97.3027604 C13.1053408,111.864321 28.1041685,131.544005 56.0631834,126.8235 C84.0209884,122.101781 86.3766162,96.12324 71.6524303,92.589528 C56.9282444,89.0570283 4.47287854,105.537582 10.4012689,143.610753 C14.6805989,171.081576 51.7729645,179 51.7729645,179" id="Stroke-3" stroke="#D7DAE9" stroke-width="2" stroke-dasharray="7"></path>
                            <path d="M69.4172944,20 C69.4172944,20 73.5536463,9.19465345 73.9897151,4.99125304 C74.2190923,2.79485104 70.5793043,-3.32042133 66.3194415,2.33620561 C62.0595788,7.99283256 64.0029836,14.9285706 69.4172944,20" id="Fill-5" fill="#D8DBEA"></path>
                            <path d="M55.0563357,8.70293802 C50.318229,7.1297621 48.1733634,8.35633369 47.2594925,10.8045836 C46.3448064,13.2536491 47.6214539,17.9152736 54.7677449,18.9779217 C61.9148511,20.0405698 69,19.9997928 69,19.9997928 C69,19.9997928 59.7944424,10.276114 55.0563357,8.70293802" id="Fill-7" fill="#D8DBEA"></path>
                            <path d="M69.0128993,22.3214341 C69.1184653,21.8649987 69.2581617,21.4275471 69.4137327,21 C68.5549175,21.1427908 67.6810215,21.3433583 66.8015693,21.6149084 C65.8475066,21.9087439 64.9569422,22.2941965 64.1195578,22.7357751 C63.7560297,23.4588084 63.4615561,24.2313645 63.2702673,25.0608718 C62.0915792,30.1675006 64.8743944,35.3145731 69.5502541,37 C70.0566535,36.8943513 70.565434,36.772195 71.0750083,36.6153727 C72.4989587,36.1762703 73.8125809,35.5952025 75,34.921692 C70.4336749,32.812845 67.805637,27.5502192 69.0128993,22.3214341" id="Fill-9" fill="#D8DBEA"></path>
                            <path d="M62.2496401,25.4260816 C62.367263,24.9327255 62.5268353,24.4609641 62.7036809,24 C58.4454041,26.6677776 56.0608678,30.8081484 56.4540407,33.2226034 C53.7330866,34.3662926 52,35.329749 52,35.329749 C52,35.329749 54.0530537,35.1769249 57.0446227,34.6146318 C58.6469258,36.9045019 63.0886284,38.4377265 68,37.8878919 C63.5508945,35.637889 61.0396874,30.5174504 62.2496401,25.4260816" id="Fill-11" fill="#D8DBEA"></path>
                            <path d="M76.1889847,26.7742529 C75.1174055,26.5170939 74.4530265,25.440653 74.7110298,24.3625637 C74.9682088,23.2918924 76.051328,22.6283894 77.1220828,22.8855483 C78.1986077,23.1443557 78.8563924,24.2249177 78.6000377,25.2964133 C78.3412101,26.3736784 77.2663338,27.032236 76.1889847,26.7742529 M80.4903229,24.9340602 C79.6610672,21.9469447 75.8484054,20.4043405 71.350736,20.9325898 C71.1627349,21.3954437 71.0027631,21.8837292 70.8885951,22.3894534 C69.8870621,26.82326 72.2005008,31.2832247 76.1239124,32.8301887 C79.3978657,30.6641485 81.2361744,27.5971053 80.4903229,24.9340602" id="Fill-13" fill="#D8DBEA"></path>
                        </g>
                    </g>
                    <path d="M288.933684,136.271599 C288.933684,136.271599 287.280027,136.591791 286.176248,135.892294 C284.229247,134.657503 284.954555,133.026439 283.474604,132.284798 C281.635738,131.361988 280.681506,133.261246 278.91914,132.377297 C276.847899,131.338452 278.213388,129.64554 276.258335,128.664712 C274.211827,127.638455 272.708294,129.28375 270.779124,128.315511 C269.774276,127.811414 269.645434,127.319358 269.217497,126.386696 C268.755048,125.381239 268.844777,124.506594 267.582246,123.877704 C265.921112,123.050679 264.68734,124.803251 262.640833,123.776994 C260.685779,122.796167 262.050693,121.103254 259.979452,120.064409 C258.217086,119.18046 257.263429,121.079719 255.423988,120.157456 C253.944612,119.415268 254.722262,117.705935 252.722345,116.549412 C251.08882,115.605256 249.780849,116.464028 248.937053,116.339782 C247.460553,116.123037 246.933684,114.344739 246.933684,114.344739" id="Stroke-30" stroke="#2CC2DC" transform="translate(267.933684, 125.344739) rotate(-76.000000) translate(-267.933684, -125.344739) "></path>
                    <path d="M75.5596666,144.389892 C75.5596666,144.389892 75.6769857,142.675577 76.697728,141.790918 C78.499272,140.231004 79.9859766,141.406572 81.1525393,140.164737 C82.6027889,138.62139 80.9006678,137.144308 82.289938,135.665239 C83.9224629,133.92773 85.3004651,135.749398 86.8415209,134.107975 C88.4548241,132.391672 87.1643141,130.447411 88.6861482,128.82852 C89.4775549,127.985609 90.0204043,127.998863 91.0988119,127.843136 C92.2620605,127.675482 93.1402967,128.012779 94.131875,126.952514 C95.4343157,125.556278 93.9602046,123.845938 95.572845,122.128972 C97.1152265,120.488213 98.4925658,122.30988 100.125091,120.572371 C101.514361,119.092639 99.8129027,117.616221 101.262489,116.072873 C102.429052,114.831038 103.982702,116.080162 105.717301,114.446029 C107.134409,113.111421 106.602165,111.581989 106.958099,110.788779 C107.581813,109.400495 109.559667,109.389892 109.559667,109.389892" id="Stroke-31" stroke="#2CC2DC" transform="translate(92.559667, 126.889892) rotate(74.000000) translate(-92.559667, -126.889892) "></path>
                    <g id="shopping-basket" opacity="0.89546131" transform="translate(109.000000, 128.000000)" fill-rule="nonzero">
                        <circle id="Oval" fill="#080040" cx="35.5" cy="34" r="12"></circle>
                        <path d="M129.5,51 L109.897493,110.72682 C109.060925,113.273762 106.666491,115 103.962286,115 L34.3588795,115 C31.6655388,115 29.2764047,113.287419 28.4318871,110.753871 L8.5,51 L129.5,51 Z" id="Path" fill="#383071"></path>
                        <path d="M129.5,51 L109.763908,110.72682 C108.921639,113.273762 106.510888,115 103.788254,115 L45.5324325,115 C42.8207374,115 40.415322,113.287419 39.5650492,110.753871 L19.5,51 L129.5,51 Z" id="Path" fill="#59547D"></path>
                        <path d="M131.107637,49.8394414 C130.721099,49.3121673 130.102638,49 129.44473,49 L20.3979062,49 C19.2629146,49 18.3426369,49.9118432 18.3426369,51.0364324 C18.3426369,52.1610215 19.2629146,53.0728647 20.3979062,53.0728647 L126.615061,53.0728647 L119.206772,75.6404598 L107.057835,75.6404598 L110.379413,60.1776869 C110.615572,59.077494 109.90736,57.9959262 108.797255,57.7619319 C107.687415,57.527413 106.595313,58.2293959 106.359155,59.3295888 L102.855428,75.6404598 L89.0094306,75.6404598 L90.4128806,59.9329373 C90.5129569,58.8125453 89.6776645,57.8241031 88.5466442,57.7249441 C87.4188009,57.6252604 86.4183033,58.4534218 86.3182271,59.5740761 L84.8827421,75.6404598 L71.055013,75.6404598 L71.055013,59.7535067 C71.055013,58.6289175 70.1347352,57.7170743 68.9997437,57.7170743 C67.8647521,57.7170743 66.9444744,58.6289175 66.9444744,59.7535067 L66.9444744,75.6404598 L53.5745014,75.6404598 L52.1390163,59.5740761 C52.0389401,58.4536841 51.0387073,57.627359 49.9105992,57.7249441 C48.7798437,57.8241031 47.9445513,58.8125453 48.0443628,59.9329373 L49.4478129,75.6404598 L46.9334637,75.6404598 C45.7984721,75.6404598 44.8781944,76.5523031 44.8781944,77.6768922 C44.8781944,78.8014814 45.7984721,79.7133246 46.9334637,79.7133246 L49.811582,79.7133246 L51.1059543,94.2007715 L39.5887153,94.2007715 L36.4765563,79.7133246 L38.7126512,79.7133246 C39.8476427,79.7133246 40.7679205,78.8014814 40.7679205,77.6768922 C40.7679205,76.5523031 39.8476427,75.6404598 38.7126512,75.6404598 L35.6018159,75.6404598 L32.0980887,59.3295888 C31.8616652,58.2296582 30.771152,57.5263637 29.6599881,57.7619319 C28.5498832,57.9959262 27.841407,59.077494 28.0778305,60.1776869 L31.3994083,75.6404598 L18.9280034,75.6404598 L11.3989877,53.0728647 L12.1770937,53.0728647 C13.3120852,53.0728647 14.232363,52.1610215 14.232363,51.0364324 C14.232363,49.9118432 13.3120852,49 12.1770937,49 L8.55528711,49 C7.89552528,49 7.27600573,49.3140035 6.8894679,49.8436386 C6.50319482,50.373536 6.39676454,51.0547952 6.60380056,51.6754571 L26.5160588,111.362364 C27.6409898,114.734033 30.8047755,117 34.3887225,117 L41.9410363,117 C41.9426248,117 41.9439486,117 41.9458019,117 C41.9481846,117 41.9510969,117 41.9534797,117 L55.0192527,117 C55.0200469,117 55.021106,117 55.0219002,117 C55.0229592,117 55.0237535,117 55.0248125,117 L83.4321662,117 C83.4332252,117 83.4340195,117 83.4350785,117 C83.4358727,117 83.4369317,117 83.437726,117 L96.503499,117 C96.5058818,117 96.5087941,117 96.5111768,117 C96.5127653,117 96.5140891,117 96.5159424,117 L103.930056,117 C107.532271,117 110.701087,114.719343 111.815428,111.325114 L117.916636,92.7383072 C118.267697,91.6688064 117.677035,90.519821 116.597642,90.1719775 C115.517983,89.8243963 114.358899,90.409382 114.007574,91.4788828 L113.114036,94.2012962 L103.070936,94.2012962 L106.183095,79.7138492 L117.87004,79.7138492 L116.550781,83.7326749 C116.19972,84.8021758 116.790381,85.9511612 117.869775,86.2990047 C118.081047,86.366947 118.294967,86.3994753 118.505709,86.3994753 C119.371977,86.3994753 120.177353,85.8525268 120.459843,84.9923617 L131.399129,51.6668004 C131.602723,51.0461384 131.494439,50.3672402 131.107637,49.8394414 Z M84.5189729,79.7133246 L83.2246007,94.2007715 L71.055013,94.2007715 L71.055013,79.7133246 L84.5189729,79.7133246 Z M85.6780569,112.926611 L86.9869905,98.2736363 L97.9932582,98.2736363 L94.8453576,112.926611 L85.6780569,112.926611 Z M81.5516332,112.926611 L71.055013,112.926611 L71.055013,98.2736363 L82.8605668,98.2736363 L81.5516332,112.926611 Z M56.9056103,112.926611 L55.5966767,98.2736363 L66.9450039,98.2736363 L66.9450039,112.926611 L56.9056103,112.926611 Z M53.9382705,79.7133246 L66.9447391,79.7133246 L66.9447391,94.2007715 L55.2329075,94.2007715 L53.9382705,79.7133246 Z M51.4702529,98.2736363 L52.7791865,112.926611 L43.6113563,112.926611 L40.4637205,98.2736363 L51.4702529,98.2736363 Z M32.2741487,79.7133246 L35.3863078,94.2007715 L25.1200218,94.2007715 L20.2869751,79.7133246 L32.2741487,79.7133246 Z M30.4187671,110.08379 L26.4787287,98.273374 L36.2613129,98.273374 L39.4092135,112.926348 L34.3889872,112.926348 C32.5815257,112.926611 30.9861305,111.784183 30.4187671,110.08379 Z M111.777303,98.2736363 L107.906895,110.064902 C107.345091,111.776576 105.747313,112.926348 103.930585,112.926348 L99.0488242,112.926348 L102.196725,98.273374 L111.777303,98.273374 L111.777303,98.2736363 Z M98.8685281,94.2007715 L87.3512892,94.2007715 L88.6456614,79.7133246 L101.980952,79.7133246 L98.8685281,94.2007715 Z" id="Shape" fill="#080040"></path>
                        <path d="M136.5,50.5011511 C136.5,52.8390635 135.507359,54.9649268 133.907234,56.5032425 C132.307109,58.0441161 130.0995,59 127.671687,59 L9.3283125,59 C4.47295312,59 0.5,55.176976 0.5,50.5014068 C0.5,48.1634944 1.49264062,46.0376311 3.09276562,44.4967575 C4.69289063,42.9558839 6.9005,42 9.3283125,42 L127.671688,42 C132.362094,42 136.230391,45.5715833 136.486187,50.0274296 C136.494422,50.183461 136.5,50.342306 136.5,50.5011511 Z" id="Path" fill="#383071"></path>
                        <path d="M136.5,50 L18.3008402,50 C13.6161497,50 9.75521986,46.4406207 9.5,42 L127.696507,42 C132.380932,42 136.244515,45.5593793 136.5,50 Z" id="Path" fill="#080040"></path>
                        <path d="M74.5,5.88674084 L74.5,47.1103854 C74.5,48.638174 73.8995475,50.033509 72.9187553,51.082688 C71.8195227,52.2588344 70.2438673,53 68.5,53 C65.1996407,53 62.5,50.3498824 62.5,47.1106467 L62.5,5.88674084 C62.5,2.64985631 65.1999068,0 68.5,0 C70.1501797,0 71.651577,0.662529391 72.7369693,1.73051841 C72.7976534,1.79008335 72.8580712,1.8522608 72.9187553,1.91705074 C73.8995475,2.96361727 74.5,4.36182599 74.5,5.88674084 Z" id="Path" fill="#080040"></path>
                        <path d="M74.5,5.95631635 L74.5,47.0410799 C74.5,48.5637215 73.9309258,49.9543556 73.0013874,51 C72.0693265,49.9543556 71.5,48.5637215 71.5,47.0410799 L71.5,5.95631635 C71.5,4.43627852 72.0690742,3.04304069 73.0013874,2 C73.9309258,3.04304069 74.5,4.43653889 74.5,5.95631635 Z" id="Path" fill="#383071"></path>
                        <circle id="Oval" fill="#59547D" cx="68.5" cy="48" r="2"></circle>
                    </g>
                </g>
                <text id="Your-Cart-is-Empty!" font-family="Avenir-Heavy, Avenir" font-size="22" font-weight="600" line-spacing="28" letter-spacing="0.349999994" fill="#1E1F20">
                    <tspan x="65.5770001" y="352.227844">Your Cart is Empty!</tspan>
                </text>
                <text id="You-have-no-items-ad" font-family="Avenir-Medium, Avenir" font-size="16" font-weight="400" letter-spacing="0.25454545" fill="#747A8D">
                    <tspan x="40.5581819" y="390">You have no items added in the cart.</tspan>
                    <tspan x="46.7487273" y="412">Explore and add products you like.</tspan>
                </text>
                <g id="btn" transform="translate(93.000000, 443.000000)">
                    <rect id="Rectangle" fill="#08C25E" x="0" y="0" width="170" height="46" rx="12"></rect>
                    <text id="GO-TO-HOME" font-family="Avenir-Heavy, Avenir" font-size="14" font-weight="600" fill="#FFFFFF">
                        <tspan x="37" y="28">GO TO HOME</tspan>
                    </text>
                </g>
            </g>
        </g>
    </g>
</svg>